<?xml version="1.0" encoding="utf-8"?>
<!-- Generator: Adobe Illustrator 19.0.0, SVG Export Plug-In . SVG Version: 6.00 Build 0)  -->
<svg version="1.1" id="svg" xmlns="http://www.w3.org/2000/svg" xmlns:xlink="http://www.w3.org/1999/xlink" x="0px" y="0px"
	 viewBox="0 51 800 500" style="enable-background:new 0 51 800 500;" xml:space="preserve">
<style type="text/css">
	.st0{fill:#292828;}
	.st1{fill:#FFD00D;stroke:#53586A;stroke-width:0.9921;stroke-linecap:round;stroke-linejoin:round;stroke-miterlimit:10;}
	.st2{fill:none;stroke:#53586A;stroke-width:0.9921;stroke-miterlimit:10;}
	.st3{fill:none;stroke:#F9AE41;stroke-width:0.9921;stroke-miterlimit:10;}
	.st4{fill:#F7EB1E;stroke:#53586A;stroke-width:0.9921;stroke-miterlimit:10;}
	.st5{fill:none;stroke:#F1F1F1;stroke-width:0.9921;stroke-miterlimit:10;}
	.st6{fill:#F1F1F1;stroke:#53586A;stroke-width:0.9921;stroke-linecap:round;stroke-linejoin:round;stroke-miterlimit:10;}
	.st7{fill:none;stroke:#53586A;stroke-width:0.9921;stroke-linecap:round;stroke-linejoin:round;stroke-miterlimit:10;}
	.st8{fill:#17FFA6;stroke:#53586A;stroke-width:0.9921;stroke-miterlimit:10;}
	.st9{fill:#F5957D;stroke:#2E368E;stroke-width:0.9921;stroke-miterlimit:10;}
	.st10{fill:none;stroke:#895D3B;stroke-width:0.9921;stroke-miterlimit:10;}
	.st11{fill:none;stroke:#8A5F3C;stroke-width:0.9921;stroke-miterlimit:10;}
	.st12{fill:#90CFB1;stroke:#53586A;stroke-width:0.9921;stroke-miterlimit:10;}
	.st13{fill:none;stroke:#8B8F98;stroke-width:0.9921;stroke-miterlimit:10;}
	.st14{fill:#F9EC21;stroke:#53586A;stroke-width:0.9921;stroke-miterlimit:10;}
	.st15{fill:#8975C6;stroke:#53586A;stroke-width:0.9921;stroke-linecap:round;stroke-linejoin:round;stroke-miterlimit:10;}
	.st16{fill:#F9DCE0;}
	.st17{fill:#F5957D;stroke:#F59120;stroke-width:0.9921;stroke-miterlimit:10;}
	.st18{fill:#C5D3D2;stroke:#53586A;stroke-width:0.9921;stroke-miterlimit:10;}
	.st19{fill:#F5957D;stroke:#53586A;stroke-width:0.9921;stroke-miterlimit:10;}
	.st20{fill:none;stroke:#00FFBC;stroke-width:0.9921;stroke-miterlimit:10;}
	.st21{fill:#F05A2B;stroke:#53586A;stroke-width:0.9921;stroke-miterlimit:10;}
	.st22{fill:#FFD00D;stroke:#53586A;stroke-width:0.9921;stroke-miterlimit:10;}
	.st23{fill:#FFFFFF;}
	.st24{fill:#53586A;}
	.st25{fill:none;stroke:#3F3E42;stroke-width:0.9921;stroke-miterlimit:10;}
</style>
<g id="图层_3">
	<rect id="XMLID_625_" x="-13.5" y="39.5" class="st0" width="827" height="527"/>
</g>
<defs>
<g id="xq1">
	<rect id="XMLID_774_" x="6.6" y="86" class="st1" width="7.6" height="9.7"/>
	<polygon id="XMLID_773_" class="st1" points="3.1,90.2 6.6,86 6.6,95.7 3.1,99.9 	"/>
	<polygon id="XMLID_635_" class="st1" points="6.6,95.7 14.2,95.7 10.6,100 3,100 	"/>
</g>
<g id="xq2">
	<g id="XMLID_788_">
		<path id="XMLID_789_" class="st2" d="M12.4,88.2c1.4,0.9,1.8,2.8,1,4.1c-0.9,1.5-2.7,1.9-4.1,1s-1.8-2.8-1-4.1
			C9.1,87.7,11,87.3,12.4,88.2z"/>
	</g>
	<g id="XMLID_786_">
		<path id="XMLID_787_" class="st3" d="M12.7,87.6c1.7,1.1,2.3,3.4,1.3,5.2c-1.1,1.8-3.4,2.3-5.1,1.3c-1.7-1.1-2.3-3.4-1.3-5.2
			C8.7,87.1,11,86.4,12.7,87.6z"/>
	</g>
	<path id="XMLID_785_" class="st4" d="M11.2,90.1c0.4,0.3,0.5,0.8,0.3,1.1c-0.2,0.4-0.8,0.5-1.1,0.3c-0.4-0.3-0.5-0.8-0.3-1.1
		C10.3,90,10.9,89.8,11.2,90.1z"/>
	<g id="XMLID_630_">
		<path id="XMLID_784_" class="st5" d="M5.2,93.9"/>
		<line id="XMLID_783_" class="st5" x1="11.6" y1="93.1" x2="14.5" y2="99.2"/>
		<line id="XMLID_782_" class="st5" x1="9.9" y1="93.3" x2="8.3" y2="100.5"/>
		<line id="XMLID_781_" class="st5" x1="8.3" y1="92.1" x2="3.1" y2="96.4"/>
		<line id="XMLID_780_" class="st5" x1="7.8" y1="90.8" x2="2.4" y2="92"/>
		<line id="XMLID_779_" class="st5" x1="9.8" y1="88" x2="9.1" y2="85.5"/>
		<line id="XMLID_778_" class="st5" x1="11.9" y1="88.3" x2="13.3" y2="86.4"/>
		<line id="XMLID_777_" class="st5" x1="13.2" y1="90.1" x2="16.5" y2="89.6"/>
		<line id="XMLID_776_" class="st5" x1="12.9" y1="91.8" x2="17.4" y2="94.3"/>
		<line id="XMLID_775_" class="st5" x1="7.9" y1="89.4" x2="4.2" y2="87.9"/>
	</g>
</g>
<g id="xq3">
	<rect id="XMLID_793_" x="3.2" y="86.5" class="st6" width="6.9" height="8.9"/>
	<polygon id="XMLID_792_" class="st6" points="6.1,99.4 3.2,95.4 10.1,95.4 13.1,99.4 	"/>
	<polygon id="XMLID_791_" class="st6" points="10.1,95.4 10.1,86.5 13.2,90.7 13.2,99.6 	"/>
	<path id="XMLID_790_" class="st7" d="M12.9,100.7c1,5.8,1.1,9.9,0.1,10.3c-1.4,0.6-4.7-6.9-7.3-16.9S2.2,75.6,3.7,75
		c1.1-0.5,3.2,3.7,5.2,10"/>
</g>
<g id="xq4">
	<ellipse id="XMLID_796_" class="st3" cx="10" cy="93" rx="7.6" ry="7.5"/>
	<ellipse id="XMLID_795_" class="st3" cx="10" cy="93" rx="9" ry="9"/>
	<path id="XMLID_794_" class="st8" d="M10,95.8c-3.6-0.5-3.6-5.2,0-5.7C13.7,90.7,13.7,95.3,10,95.8z"/>
</g>
<g id="xq5">
	<path id="XMLID_803_" class="st9" d="M13.8,94.5c-0.9,6.9-9.8,6.9-10.8,0C3.9,87.7,12.8,87.7,13.8,94.5z"/>
	<path id="XMLID_802_" class="st10" d="M4.5,88.9c-0.8-1.8-1.1-3-0.7-3.2c0.6-0.4,3.2,2.6,5.6,6.8c2.5,4.1,3.9,7.7,3.3,8.1
		c-0.4,0.2-1.3-0.7-2.5-2.2"/>
	<g id="XMLID_797_">
		<path id="XMLID_801_" class="st11" d="M5.8,94.8c0,0.8-0.6,1.4-1.4,1.4S3,95.5,3,94.8"/>
		<path id="XMLID_800_" class="st11" d="M8.6,94.8c0,0.8-0.6,1.4-1.4,1.4s-1.4-0.6-1.4-1.4"/>
		<path id="XMLID_799_" class="st11" d="M11.5,94.8c0,0.8-0.6,1.4-1.4,1.4s-1.4-0.6-1.4-1.4"/>
		<path id="XMLID_798_" class="st11" d="M14.4,94.8c0,0.8-0.6,1.4-1.4,1.4s-1.4-0.6-1.4-1.4"/>
	</g>
</g>
<g id="xq0">
	<g id="XMLID_808_">
		<rect id="XMLID_811_" x="3" y="97.1" class="st1" width="5.2" height="6.6"/>
		<polygon id="XMLID_810_" class="st1" points="10.6,100.9 8.2,103.8 8.2,97.1 10.6,94.3 		"/>
		<polygon id="XMLID_809_" class="st1" points="8.2,97.1 3,97.1 5.5,94.2 10.7,94.2 		"/>
	</g>
	<g id="XMLID_804_">
		<rect id="XMLID_807_" x="6.8" y="85.1" class="st1" width="5.2" height="6.6"/>
		<polygon id="XMLID_806_" class="st1" points="14.3,88.9 12,91.7 12,85.1 14.3,82.3 		"/>
		<polygon id="XMLID_805_" class="st1" points="12,85.1 6.8,85.1 9.2,82.2 14.4,82.2 		"/>
	</g>
</g>
<g id="xq6">
	<path id="XMLID_823_" class="st12" d="M17.3,89c-2.2-0.3-2.3-3.4-2.3-3.5h-0.2h-0.2c0,0.1-0.6,3.1-2.8,2.8v0.4
		c0.1,0,2.6,0.4,2.3,3.5h0.3c0.2-3.1,2.6-2.9,2.7-2.9L17.3,89z"/>
	<g id="XMLID_812_">
		<path id="XMLID_822_" class="st13" d="M6.8,94.2"/>
		<line id="XMLID_821_" class="st13" x1="15.9" y1="93.4" x2="19.2" y2="104.5"/>
		<line id="XMLID_820_" class="st13" x1="13.4" y1="93.6" x2="10.5" y2="106.2"/>
		<line id="XMLID_819_" class="st13" x1="11.2" y1="91.4" x2="3.6" y2="98.3"/>
		<line id="XMLID_818_" class="st13" x1="10.8" y1="89.1" x2="3" y2="90.4"/>
		<line id="XMLID_817_" class="st13" x1="13.8" y1="84.3" x2="13.1" y2="79.8"/>
		<line id="XMLID_816_" class="st13" x1="16.7" y1="85" x2="18.7" y2="81.7"/>
		<line id="XMLID_815_" class="st13" x1="18.2" y1="88.3" x2="23.1" y2="87.9"/>
		<line id="XMLID_814_" class="st13" x1="17.8" y1="91.3" x2="23.8" y2="96.2"/>
		<line id="XMLID_813_" class="st13" x1="11.1" y1="86.5" x2="6.1" y2="83.5"/>
	</g>
</g>
<g id="xq7">
	<rect id="XMLID_829_" x="6.7" y="90.7" class="st6" width="6.9" height="8.9"/>
	<polygon id="XMLID_828_" class="st6" points="10.6,86.6 13.6,90.7 6.7,90.7 3.7,86.6 	"/>
	<polygon id="XMLID_827_" class="st6" points="6.7,90.7 6.7,99.5 3.6,95.3 3.6,86.5 	"/>
	<path id="XMLID_826_" class="st7" d="M3.8,85.3c-1-5.8-1.1-9.9-0.1-10.3c1.4-0.6,4.7,6.9,7.3,16.9s3.5,18.5,2,19.1
		c-1.1,0.5-3.2-3.7-5.2-10"/>
	<path id="XMLID_825_" class="st14" d="M14.3,103.5c0.6,0.7,0.6,1.9,0,2.7c-0.6,0.8-1.5,0.7-2.1,0s-0.6-1.9,0-2.7
		C12.8,102.8,13.8,102.8,14.3,103.5z"/>
</g>
<g id="xq8">
	<path id="XMLID_835_" class="st4" d="M24,89.1c0.1-0.6,0.5-1,1-0.8c0.4,0.1,0.7,0.7,0.7,1.2c-0.1,0.6-0.5,1-1,0.8
		C24.2,90.3,23.9,89.7,24,89.1z"/>
	<rect id="XMLID_834_" x="15.2" y="87" class="st1" width="6.9" height="8.9"/>
	<polygon id="XMLID_833_" class="st1" points="12.1,90.8 15.2,87 15.2,95.8 12.1,99.6 	"/>
	<polygon id="XMLID_832_" class="st1" points="15.2,95.8 22.2,95.8 18.9,99.7 12,99.7 	"/>
	<path id="XMLID_831_" class="st7" d="M11.1,99.5c-4.5,1.3-7.8,1.4-8.1,0.1c-0.5-1.9,5.4-6,13.2-9.3c7.8-3.3,14.5-4.4,14.9-2.6
		c0.4,1.4-2.9,4.1-7.8,6.7"/>
	<path id="XMLID_830_" class="st14" d="M25.3,86c0.6-0.7,1.5-0.7,2.1,0s0.6,1.9,0,2.7c-0.6,0.7-1.5,0.7-2.1,0
		C24.7,88,24.7,86.7,25.3,86z"/>
</g>
<g id="xq9">
	<rect id="XMLID_839_" x="6.3" y="86.6" class="st15" width="6.9" height="8.9"/>
	<polygon id="XMLID_838_" class="st15" points="3.1,90.4 6.3,86.6 6.3,95.5 3.1,99.3 	"/>
	<polygon id="XMLID_837_" class="st15" points="6.3,95.5 13.2,95.5 9.9,99.4 3,99.4 	"/>
</g>
<g id="xq10">
	<g id="XMLID_853_">
		<path id="XMLID_854_" class="st2" d="M13.1,88.2c1.4,0.9,1.9,2.7,1,4.1s-2.6,1.9-4.1,1c-1.4-0.9-1.9-2.7-1-4.1
			C9.9,87.8,11.8,87.3,13.1,88.2z"/>
	</g>
	<g id="XMLID_851_">
		<path id="XMLID_852_" class="st3" d="M13.5,87.5c1.8,1.1,2.4,3.4,1.3,5.2c-1.1,1.8-3.3,2.3-5.1,1.3s-2.4-3.4-1.3-5.2
			C9.5,87,11.8,86.4,13.5,87.5z"/>
	</g>
	<path id="XMLID_850_" class="st4" d="M12.1,90c0.4,0.2,0.5,0.8,0.3,1.2s-0.7,0.6-1.1,0.3s-0.5-0.8-0.3-1.2S11.7,89.8,12.1,90z"/>
	<g id="XMLID_836_">
		<path id="XMLID_849_" class="st5" d="M6,93.9"/>
		<line id="XMLID_848_" class="st5" x1="12.4" y1="93" x2="15.2" y2="99.2"/>
		<line id="XMLID_847_" class="st5" x1="10.6" y1="93.2" x2="9" y2="100.5"/>
		<line id="XMLID_846_" class="st5" x1="9" y1="92.1" x2="3.8" y2="96.4"/>
		<line id="XMLID_845_" class="st5" x1="8.6" y1="90.9" x2="3.1" y2="92"/>
		<line id="XMLID_844_" class="st5" x1="10.6" y1="88" x2="9.9" y2="85.5"/>
		<line id="XMLID_843_" class="st5" x1="12.7" y1="88.2" x2="14" y2="86.4"/>
		<line id="XMLID_842_" class="st5" x1="13.9" y1="90.1" x2="17.4" y2="89.6"/>
		<line id="XMLID_841_" class="st5" x1="13.7" y1="91.8" x2="18.2" y2="94.3"/>
		<line id="XMLID_840_" class="st5" x1="8.8" y1="89.4" x2="5.1" y2="87.9"/>
	</g>
</g>
<ellipse id="yq0" class="st16" cx="8.6" cy="93" rx="7" ry="7"/>
<path id="yq1" class="st17" d="M4.5,89.5c2-2,5-2,7,0s2,5.1,0,7.1s-5,2-7,0S2.6,91.4,4.5,89.5z"/>
<g id="yq2">
	<ellipse id="XMLID_857_" class="st3" cx="7.7" cy="93" rx="4.1" ry="4.2"/>
	<ellipse id="XMLID_856_" class="st3" cx="7.7" cy="93" rx="5" ry="5"/>
	<path id="XMLID_855_" class="st8" d="M6.5,91.9c0.6-0.6,1.5-0.6,2.1,0s0.6,1.6,0,2.2s-1.5,0.6-2.1,0C6,93.5,6,92.5,6.5,91.9z"/>
</g>
<path id="yq3" class="st3" d="M11.6,89.5c2,2,2,5.1,0,7.1s-5.1,2-7.1,0s-2-5.1,0-7.1S9.7,87.5,11.6,89.5z"/>
<g id="yq4">
	<path id="XMLID_860_" class="st18" d="M11.6,96.6c-1.9,1.9-5,1.9-7-0.1c-2-1.9-2-5.1,0-7c1.9-1.9,5-1.9,7,0.1
		C13.5,91.5,13.5,94.6,11.6,96.6z"/>
	<path id="XMLID_859_" class="st19" d="M9.8,94.8c-0.9,0.9-2.4,0.9-3.3,0s-0.9-2.4,0-3.4s2.4-0.9,3.3,0
		C10.7,92.5,10.7,93.9,9.8,94.8z"/>
</g>
<g id="yq5">
	<ellipse id="XMLID_862_" class="st20" cx="8" cy="93" rx="5" ry="5"/>
	<path id="XMLID_858_" class="st2" d="M3.6,90.5"/>
</g>
<path id="dd0" class="st4" d="M2.1,92.6c0.3-1.3,1.5-2.3,2.9-2c1.3,0.3,2.1,1.6,2,2.9c-0.2,1.3-1.5,2.3-2.9,2S1.7,93.9,2.1,92.6z"/>
<path id="dd1" class="st8" d="M6.7,91.9c0.7,1.2,0.2,2.7-1,3.3c-1.2,0.7-2.7,0.1-3.4-1.1s-0.2-2.7,1-3.3S6,90.7,6.7,91.9z"/>
<path id="dd2" class="st21" d="M3.4,92c0.6-0.6,1.5-0.6,2.1,0s0.6,1.6,0,2.2s-1.5,0.6-2.1,0C2.8,93.5,2.8,92.5,3.4,92z"/>
<path id="dd3" class="st18" d="M7.2,94.8c-1,1-2.6,1-3.5,0c-1-1-1-2.6,0-3.6s2.6-1,3.5,0C8.2,92.2,8.2,93.8,7.2,94.8z"/>
<g id="xq11">
	<path id="XMLID_864_" class="st22" d="M6.9,102.2l-0.5,0.1c-0.7,0.1-1.3-0.5-1.4-1.3L3.3,86c-0.1-0.9,0.4-1.7,1-1.8l0.5-0.1
		c0.7-0.1,1.3,0.5,1.4,1.3l1.7,15C8,101.2,7.6,102,6.9,102.2z"/>
	<path id="XMLID_863_" class="st22" d="M3.5,96.3l-0.3-0.5c-0.4-0.7-0.3-1.7,0.2-2.2l9.2-9.6c0.5-0.5,1.3-0.4,1.7,0.2l0.3,0.5
		c0.4,0.7,0.3,1.7-0.2,2.2l-9.2,9.6C4.7,97,3.9,96.9,3.5,96.3z"/>
</g>
<g id="dd4">
	<path id="XMLID_873_" class="st14" d="M9.2,91.3c0.8-1,2-1,2.8,0s0.8,2.6,0,3.5c-0.8,1-2,1-2.8,0S8.4,92.3,9.2,91.3z"/>
	<g id="XMLID_868_">
		<path id="XMLID_872_" class="st11" d="M14.3,94.4c0-1.3,0.8-2.4,1.9-2.4s1.9,1.1,1.9,2.4"/>
		<path id="XMLID_871_" class="st11" d="M10.5,94.4c0-1.3,0.8-2.4,1.9-2.4s1.9,1.1,1.9,2.4"/>
		<path id="XMLID_870_" class="st11" d="M6.7,94.4c0-1.3,0.8-2.4,1.9-2.4s1.9,1.1,1.9,2.4"/>
		<path id="XMLID_869_" class="st11" d="M3,94.4C3,93.1,3.8,92,4.9,92s1.9,1.1,1.9,2.4"/>
	</g>
</g>
<g id="xx0">
	<path id="XMLID_928_" class="st23" d="M9.8,96.8c0,0-1.2-1.2-2.7-1.2c-0.8,0-1.6,0.4-2.4,1.1l-0.4,0.5l-1.1-1.1l0.2-0.3
		c2.7-2.7,0-5.5-0.1-5.6l-0.2-0.3l1.2-1.2l0.5,0.5c0.7,0.7,1.5,1.1,2.4,1.1c1.5,0,2.7-1,2.8-1l0.5-0.4l0.5,0.6l0.5,0.4l-0.2,0.3
		c-0.1,0.1-2.5,3.1,0,5.6l0.2,0.3l-1.1,1.1L9.8,96.8z"/>
	<path id="XMLID_925_" class="st24" d="M4.1,89.5c0.9,0.9,2,1.3,2.8,1.3c1.8,0,3.1-1.1,3.2-1.1l0.1,0.2l0.2,0.2
		c-0.1,0.1-2.6,3.3,0,6.1l-0.3,0.3c-0.1-0.1-1.4-1.4-3.2-1.4c-0.9,0-1.9,0.4-2.8,1.3L3.7,96c2.9-3,0-6-0.1-6.2L4.1,89.5 M4.1,88
		l-0.9,0.9l-0.4,0.4l-0.6,0.6l0.6,0.6c0.2,0,2.5,2.6,0.2,5l-0.6,0.6L3,96.7L3.3,97l1,0.9L5.2,97c0.6-0.6,1.3-0.9,2-0.9
		c0.9,0,2,0.7,2.2,1l0.9,0.9l0.9-0.9l0.4-0.4l0.6-0.6l-0.6-0.6c-2.2-2.2-0.1-4.9,0-5.1l0.5-0.6l-0.6-0.6l-0.1-0.1h-0.1l-0.8-1
		l-1.1,0.8C9,89.2,8.1,89.8,7,89.8c-0.7,0-1.3-0.3-2-0.9L4.1,88L4.1,88z"/>
</g>
<path id="xx1" class="st12" d="M12.2,97.4c-3.9-3.9-0.2-8.5-0.1-8.7l-0.3-0.2l-0.2-0.3c-0.2,0.2-4.8,3.7-8.7-0.2l-0.6,0.6
	c0.2,0.2,4.4,4.6,0.1,8.8L3,98c4.2-4.2,8.5-0.1,8.6,0.1L12.2,97.4z"/>
<g id="xq12">
	<g id="XMLID_908_">
		<path id="XMLID_909_" class="st2" d="M13.3,88.2c1.4,0.8,1.8,2.7,1.1,4.2s-2.7,1.9-4.1,1c-1.4-0.8-1.8-2.7-1.1-4.2
			C10,87.8,11.9,87.3,13.3,88.2z"/>
	</g>
	<g id="XMLID_905_">
		<path id="XMLID_907_" class="st3" d="M13.7,87.5c1.7,1.1,2.3,3.4,1.2,5.2c-1.1,1.8-3.3,2.3-5.2,1.3c-1.7-1.1-2.3-3.4-1.2-5.2
			C9.7,87,11.9,86.4,13.7,87.5z"/>
	</g>
	<path id="XMLID_904_" class="st4" d="M12.1,90c0.4,0.2,0.5,0.8,0.3,1.1c-0.2,0.4-0.8,0.5-1.1,0.3c-0.4-0.2-0.5-0.8-0.3-1.1
		C11.3,90,11.8,89.8,12.1,90z"/>
	<g id="XMLID_874_">
		<path id="XMLID_903_" class="st25" d="M6.1,93.9"/>
		<line id="XMLID_902_" class="st25" x1="12.5" y1="93" x2="15.3" y2="99.1"/>
		<line id="XMLID_884_" class="st25" x1="10.8" y1="93.2" x2="9.2" y2="100.5"/>
		<line id="XMLID_883_" class="st25" x1="9.2" y1="92.1" x2="4" y2="96.4"/>
		<line id="XMLID_882_" class="st25" x1="8.8" y1="90.9" x2="3.3" y2="92"/>
		<line id="XMLID_881_" class="st25" x1="10.7" y1="88" x2="10" y2="85.5"/>
		<line id="XMLID_880_" class="st25" x1="12.8" y1="88.2" x2="14.1" y2="86.3"/>
		<line id="XMLID_879_" class="st25" x1="14.1" y1="90" x2="17.5" y2="89.6"/>
		<line id="XMLID_878_" class="st25" x1="13.9" y1="91.8" x2="18.3" y2="94.3"/>
		<line id="XMLID_877_" class="st25" x1="8.9" y1="89.4" x2="5.3" y2="87.9"/>
	</g>
</g>
<path id="dd5" class="st22" d="M12.4,88l0.3,0.4c0.4,0.6,0.3,1.4-0.1,1.8l-7.7,8c-0.4,0.5-1.1,0.4-1.4-0.2l-0.3-0.4
	c-0.4-0.6-0.3-1.4,0.1-1.8l7.7-8C11.4,87.4,12,87.5,12.4,88z"/>
</defs>
<g id="xq">
</g>
<g id="yq">
</g>
<g id="dd">
</g>
<g id="xx">
</g>
</svg>
