<?xml version="1.0" encoding="utf-8"?>
<!-- Generator: Adobe Illustrator 19.0.0, SVG Export Plug-In . SVG Version: 6.00 Build 0)  -->
<svg version="1.1" id="svg" xmlns="http://www.w3.org/2000/svg" xmlns:xlink="http://www.w3.org/1999/xlink" x="0px" y="0px"
	 width="100%" height="100%" viewBox="-400 -250 800 500" style="enable-background:new 0 0 800 500;" xml:space="preserve">
<style type="text/css">
	.st0{display:none;}
	.st1{display:inline;fill:#292828;}
	.st2{display:inline;fill:none;stroke:#F9AE41;stroke-width:0.9921;stroke-miterlimit:10;}
	.st3{display:inline;fill:none;stroke:#00FFBC;stroke-width:0.9921;stroke-miterlimit:10;}
	.st4{display:inline;}
	.st5{fill:#FFD00D;stroke:#53586A;stroke-width:0.9921;stroke-miterlimit:10;}
	.st6{fill:#F05A2B;stroke:#53586A;stroke-width:0.9921;stroke-miterlimit:10;}
	.st7{fill:#FFFFFF;}
	.st8{fill:#53586A;}
	.st9{display:inline;fill:none;stroke:#6DC3A6;stroke-width:0.9921;stroke-miterlimit:10;}
	.st10{fill:none;stroke:#53586A;stroke-width:0.9921;stroke-miterlimit:10;}
	.st11{fill:none;stroke:#F9AE41;stroke-width:0.9921;stroke-miterlimit:10;}
	.st12{display:inline;fill:#F7EB1E;stroke:#53586A;stroke-width:0.9921;stroke-miterlimit:10;}
	.st13{display:inline;fill:#90CFB1;stroke:#53586A;stroke-width:0.9921;stroke-miterlimit:10;}
	.st14{fill:none;stroke:#8B8F98;stroke-width:0.9921;stroke-miterlimit:10;}
	.st15{fill:none;stroke:#F1F1F1;stroke-width:0.9921;stroke-miterlimit:10;}
	.st16{display:inline;fill:#17FFA6;stroke:#53586A;stroke-width:0.9921;stroke-miterlimit:10;}
	.st17{display:inline;fill:#F9EC21;stroke:#53586A;stroke-width:0.9921;stroke-miterlimit:10;}
	.st18{display:inline;fill:none;stroke:#53586A;stroke-width:0.9921;stroke-miterlimit:10;}
	.st19{display:inline;fill:#FFD00D;stroke:#53586A;stroke-width:0.9921;stroke-miterlimit:10;}
	.st20{display:inline;fill:#F5957D;stroke:#F59120;stroke-width:0.9921;stroke-miterlimit:10;}
	.st21{display:inline;fill:#F5957D;stroke:#2E368E;stroke-width:0.9921;stroke-miterlimit:10;}
	.st22{display:inline;fill:#C5D3D2;stroke:#53586A;stroke-width:0.9921;stroke-miterlimit:10;}
	.st23{display:inline;fill:#F05A2B;stroke:#53586A;stroke-width:0.9921;stroke-miterlimit:10;}
	.st24{display:inline;fill:#91D0B2;stroke:#53586A;stroke-width:0.9921;stroke-miterlimit:10;}
	.st25{fill:#C5D3D2;stroke:#53586A;stroke-width:0.9921;stroke-miterlimit:10;}
	.st26{fill:#F5957D;stroke:#53586A;stroke-width:0.9921;stroke-miterlimit:10;}
	.st27{display:inline;fill:none;stroke:#895D3B;stroke-width:0.9921;stroke-miterlimit:10;}
	
		.st28{display:inline;fill:#FFD00D;stroke:#53586A;stroke-width:0.9921;stroke-linecap:round;stroke-linejoin:round;stroke-miterlimit:10;}
	.st29{fill:#FFD00D;stroke:#53586A;stroke-width:0.9921;stroke-linecap:round;stroke-linejoin:round;stroke-miterlimit:10;}
	
		.st30{display:inline;fill:none;stroke:#53586A;stroke-width:0.9921;stroke-linecap:round;stroke-linejoin:round;stroke-miterlimit:10;}
	
		.st31{display:inline;fill:#F1F1F1;stroke:#53586A;stroke-width:0.9921;stroke-linecap:round;stroke-linejoin:round;stroke-miterlimit:10;}
	.st32{fill:none;stroke:#8A5F3C;stroke-width:0.9921;stroke-miterlimit:10;}
	.st33{display:inline;fill:#F9DCE0;}
	.st34{fill:none;stroke:#00FFBC;stroke-width:0.9921;stroke-miterlimit:10;}
	.st35{fill:none;stroke:#6DC3A6;stroke-width:0.9921;stroke-miterlimit:10;}
	.st36{fill:#F7EB1E;stroke:#53586A;stroke-width:0.9921;stroke-miterlimit:10;}
	.st37{fill:#90CFB1;stroke:#53586A;stroke-width:0.9921;stroke-miterlimit:10;}
	.st38{fill:none;stroke:#3F3E42;stroke-width:0.9921;stroke-miterlimit:10;}
	.st39{fill:#17FFA6;stroke:#53586A;stroke-width:0.9921;stroke-miterlimit:10;}
	.st40{fill:#F9EC21;stroke:#53586A;stroke-width:0.9921;stroke-miterlimit:10;}
	.st41{fill:#F5957D;stroke:#F59120;stroke-width:0.9921;stroke-miterlimit:10;}
	.st42{fill:#F5957D;stroke:#2E368E;stroke-width:0.9921;stroke-miterlimit:10;}
	.st43{fill:#91D0B2;stroke:#53586A;stroke-width:0.9921;stroke-miterlimit:10;}
	.st44{fill:none;stroke:#895D3B;stroke-width:0.9921;stroke-miterlimit:10;}
	.st45{fill:none;stroke:#53586A;stroke-width:0.9921;stroke-linecap:round;stroke-linejoin:round;stroke-miterlimit:10;}
	.st46{fill:#F1F1F1;stroke:#53586A;stroke-width:0.9921;stroke-linecap:round;stroke-linejoin:round;stroke-miterlimit:10;}
	.st47{display:inline;fill:#6B74E8;stroke:#53586A;stroke-width:0.9921;stroke-miterlimit:10;}
	.st48{fill:#6B74E8;stroke:#53586A;stroke-width:0.9921;stroke-linecap:round;stroke-linejoin:round;stroke-miterlimit:10;}
	.st49{fill:#8975C6;stroke:#53586A;stroke-width:0.9921;stroke-linecap:round;stroke-linejoin:round;stroke-miterlimit:10;}
	.st50{fill:#10FF71;stroke:#53586A;stroke-width:0.9921;stroke-linecap:round;stroke-linejoin:round;stroke-miterlimit:10;}
	.st51{fill:#F5957D;stroke:#5B5650;stroke-width:0.9921;stroke-miterlimit:10;}
	.st52{fill:#F9DCE0;}
</style>
<g id="图层_3">
	<rect id="XMLID_625_" class="st1" x="-400" y="-250" width="801.8" height="503.4"/>
</g>

<g id="space">
	<defs>
	<g id="xq1">
		<rect id="XMLID_774_" x="189.7" y="27.3" class="st29" width="7.6" height="9.7"/>
		<polygon id="XMLID_773_" class="st29" points="186.2,31.5 189.7,27.3 189.7,37 186.2,41.2 		"/>
		<polygon id="XMLID_635_" class="st29" points="189.7,37 197.3,37 193.7,41.3 186.1,41.3 		"/>
	</g>
	<g id="xq2">
		<g id="XMLID_788_">
			<path id="XMLID_789_" class="st10" d="M216,31.4c1.3,1,1.7,3.2,0.9,4.8c-0.8,1.7-2.5,2.2-3.8,1.2s-1.7-3.2-0.9-4.8
				C213,30.9,214.7,30.4,216,31.4z"/>
		</g>
		<g id="XMLID_786_">
			<path id="XMLID_787_" class="st11" d="M216.3,30.7c1.6,1.3,2.1,4,1.2,6c-1,2.1-3.1,2.7-4.7,1.5c-1.6-1.3-2.1-4-1.2-6
				C212.6,30.1,214.7,29.4,216.3,30.7z"/>
		</g>
		<path id="XMLID_785_" class="st36" d="M214.9,33.6c0.4,0.3,0.5,0.9,0.3,1.3c-0.2,0.5-0.7,0.6-1,0.3c-0.4-0.3-0.5-0.9-0.3-1.3
			C214.1,33.5,214.6,33.3,214.9,33.6z"/>
		<g id="XMLID_630_">
			<path id="XMLID_784_" class="st15" d="M209.4,38.1"/>
			<line id="XMLID_783_" class="st15" x1="215.3" y1="37.1" x2="217.9" y2="44.2"/>
			<line id="XMLID_782_" class="st15" x1="213.7" y1="37.3" x2="212.2" y2="45.7"/>
			<line id="XMLID_781_" class="st15" x1="212.2" y1="36" x2="207.4" y2="41"/>
			<line id="XMLID_780_" class="st15" x1="211.8" y1="34.5" x2="206.8" y2="35.8"/>
			<line id="XMLID_779_" class="st15" x1="213.6" y1="31.2" x2="213" y2="28.3"/>
			<line id="XMLID_778_" class="st15" x1="215.5" y1="31.5" x2="216.8" y2="29.3"/>
			<line id="XMLID_777_" class="st15" x1="216.7" y1="33.6" x2="219.8" y2="33.1"/>
			<line id="XMLID_776_" class="st15" x1="216.5" y1="35.6" x2="220.6" y2="38.5"/>
			<line id="XMLID_775_" class="st15" x1="211.9" y1="32.8" x2="208.5" y2="31.1"/>
		</g>
	</g>
	<g id="xq3">
		<rect id="XMLID_793_" x="231.9" y="30.5" class="st46" width="6.9" height="8.9"/>
		<polygon id="XMLID_792_" class="st46" points="234.8,43.4 231.9,39.4 238.8,39.4 241.8,43.4 		"/>
		<polygon id="XMLID_791_" class="st46" points="238.8,39.4 238.8,30.5 241.9,34.7 241.9,43.6 		"/>
		<path id="XMLID_790_" class="st45" d="M241.6,44.7c1,5.8,1.1,9.9,0.1,10.3c-1.4,0.6-4.7-6.9-7.3-16.9s-3.5-18.5-2-19.1
			c1.1-0.5,3.2,3.7,5.2,10"/>
	</g>
	<g id="xq4">
		<ellipse id="XMLID_796_" class="st11" cx="259.3" cy="33.4" rx="5.9" ry="7.5"/>
		<ellipse id="XMLID_795_" class="st11" cx="259.3" cy="33.4" rx="7" ry="9"/>
		<path id="XMLID_794_" class="st39" d="M259.3,36.2c-2.8-0.5-2.8-5.2,0-5.7C262.2,31.1,262.2,35.7,259.3,36.2z"/>
	</g>
	<g id="xq5">
		<path id="XMLID_803_" class="st42" d="M293.4,38c-0.9,8.9-9.8,8.9-10.8,0C283.5,29.2,292.4,29.2,293.4,38z"/>
		<path id="XMLID_802_" class="st44" d="M284.1,30.7c-0.8-2.3-1.1-3.9-0.7-4.2c0.6-0.5,3.2,3.4,5.6,8.8c2.5,5.3,3.9,10,3.3,10.5
			c-0.4,0.3-1.3-0.9-2.5-2.9"/>
		<g id="XMLID_797_">
			<path id="XMLID_801_" class="st32" d="M285.4,38.3c0,1-0.6,1.8-1.4,1.8c-0.8,0-1.4-0.8-1.4-1.8"/>
			<path id="XMLID_800_" class="st32" d="M288.2,38.3c0,1-0.6,1.8-1.4,1.8s-1.4-0.8-1.4-1.8"/>
			<path id="XMLID_799_" class="st32" d="M291.1,38.3c0,1-0.6,1.8-1.4,1.8c-0.8,0-1.4-0.8-1.4-1.8"/>
			<path id="XMLID_798_" class="st32" d="M294,38.3c0,1-0.6,1.8-1.4,1.8s-1.4-0.8-1.4-1.8"/>
		</g>
	</g>
	<g id="xq0">
		<g id="XMLID_808_">
			<rect id="XMLID_811_" x="308.3" y="42.6" class="st29" width="5.2" height="6.6"/>
			<polygon id="XMLID_810_" class="st29" points="315.9,46.4 313.5,49.3 313.5,42.6 315.9,39.8 			"/>
			<polygon id="XMLID_809_" class="st29" points="313.5,42.6 308.3,42.6 310.8,39.7 316,39.7 			"/>
		</g>
		<g id="XMLID_804_">
			<rect id="XMLID_807_" x="312.1" y="30.6" class="st29" width="5.2" height="6.6"/>
			<polygon id="XMLID_806_" class="st29" points="319.6,34.4 317.3,37.2 317.3,30.6 319.6,27.8 			"/>
			<polygon id="XMLID_805_" class="st29" points="317.3,30.6 312.1,30.6 314.5,27.7 319.7,27.7 			"/>
		</g>
	</g>
	<g id="xq6">
		<path id="XMLID_823_" class="st37" d="M346.5,38.4c-2.2-0.3-2.3-3.4-2.3-3.5l-0.2,0l-0.2,0c0,0.1-0.6,3.1-2.8,2.8l0,0.4
			c0.1,0,2.6,0.4,2.3,3.5l0.3,0c0.2-3.1,2.6-2.9,2.7-2.9L346.5,38.4z"/>
		<g id="XMLID_812_">
			<path id="XMLID_822_" class="st14" d="M336,43.6"/>
			<line id="XMLID_821_" class="st14" x1="345.1" y1="42.8" x2="348.4" y2="53.9"/>
			<line id="XMLID_820_" class="st14" x1="342.6" y1="43" x2="339.7" y2="55.6"/>
			<line id="XMLID_819_" class="st14" x1="340.4" y1="40.8" x2="332.8" y2="47.7"/>
			<line id="XMLID_818_" class="st14" x1="340" y1="38.5" x2="332.2" y2="39.8"/>
			<line id="XMLID_817_" class="st14" x1="343" y1="33.7" x2="342.3" y2="29.2"/>
			<line id="XMLID_816_" class="st14" x1="345.9" y1="34.4" x2="347.9" y2="31.1"/>
			<line id="XMLID_815_" class="st14" x1="347.4" y1="37.7" x2="352.3" y2="37.3"/>
			<line id="XMLID_814_" class="st14" x1="347" y1="40.7" x2="353" y2="45.6"/>
			<line id="XMLID_813_" class="st14" x1="340.3" y1="35.9" x2="335.3" y2="32.9"/>
		</g>
	</g>
	<g id="xq7">
		<rect id="XMLID_829_" x="367.9" y="37.8" class="st46" width="6.9" height="8.9"/>
		<polygon id="XMLID_828_" class="st46" points="371.8,33.7 374.8,37.8 367.9,37.8 364.9,33.7 		"/>
		<polygon id="XMLID_827_" class="st46" points="367.9,37.8 367.9,46.6 364.8,42.4 364.8,33.6 		"/>
		<path id="XMLID_826_" class="st45" d="M365,32.4c-1-5.8-1.1-9.9-0.1-10.3c1.4-0.6,4.7,6.9,7.3,16.9s3.5,18.5,2,19.1
			c-1.1,0.5-3.2-3.7-5.2-10"/>
		<path id="XMLID_825_" class="st40" d="M375.5,50.6c0.6,0.7,0.6,1.9,0,2.7s-1.5,0.7-2.1,0s-0.6-1.9,0-2.7
			C374,49.9,375,49.9,375.5,50.6z"/>
	</g>
	<g id="xq8">
		<path id="XMLID_835_" class="st36" d="M419.1,37.3c0.1-0.6,0.5-1,1-0.8c0.4,0.1,0.7,0.7,0.7,1.2c-0.1,0.6-0.5,1-1,0.8
			C419.3,38.5,419,37.9,419.1,37.3z"/>
		<rect id="XMLID_834_" x="410.3" y="35.2" class="st29" width="6.9" height="8.9"/>
		<polygon id="XMLID_833_" class="st29" points="407.2,39 410.3,35.2 410.3,44 407.2,47.8 		"/>
		<polygon id="XMLID_832_" class="st29" points="410.3,44 417.3,44 414,47.9 407.1,47.9 		"/>
		<path id="XMLID_831_" class="st45" d="M406.2,47.7c-4.5,1.3-7.8,1.4-8.1,0.1c-0.5-1.9,5.4-6,13.2-9.3c7.8-3.3,14.5-4.4,14.9-2.6
			c0.4,1.4-2.9,4.1-7.8,6.7"/>
		<path id="XMLID_830_" class="st40" d="M420.4,34.2c0.6-0.7,1.5-0.7,2.1,0s0.6,1.9,0,2.7c-0.6,0.7-1.5,0.7-2.1,0
			S419.8,34.9,420.4,34.2z"/>
	</g>
	<g id="xq9">
		<rect id="XMLID_839_" x="437.9" y="40.2" class="st49" width="6.9" height="8.9"/>
		<polygon id="XMLID_838_" class="st49" points="434.7,44 437.9,40.2 437.9,49.1 434.7,52.9 		"/>
		<polygon id="XMLID_837_" class="st49" points="437.9,49.1 444.8,49.1 441.5,53 434.6,53 		"/>
	</g>
	<g id="xq10">
		<g id="XMLID_853_">
			<path id="XMLID_854_" class="st10" d="M470.7,33.5c1.4,1.1,1.9,3.5,1,5.3c-0.9,1.8-2.7,2.4-4.2,1.3c-1.4-1.1-1.9-3.5-1-5.3
				C467.4,33,469.3,32.4,470.7,33.5z"/>
		</g>
		<g id="XMLID_851_">
			<path id="XMLID_852_" class="st11" d="M471.1,32.7c1.8,1.4,2.4,4.4,1.3,6.7c-1.1,2.3-3.4,3-5.2,1.6c-1.8-1.4-2.4-4.4-1.3-6.7
				C467,32,469.3,31.3,471.1,32.7z"/>
		</g>
		<path id="XMLID_850_" class="st36" d="M469.6,35.9c0.4,0.3,0.5,1,0.3,1.5c-0.2,0.5-0.7,0.7-1.1,0.4c-0.4-0.3-0.5-1-0.3-1.5
			C468.7,35.8,469.2,35.6,469.6,35.9z"/>
		<g id="XMLID_836_">
			<path id="XMLID_849_" class="st15" d="M463.4,40.9"/>
			<line id="XMLID_848_" class="st15" x1="469.9" y1="39.7" x2="472.8" y2="47.6"/>
			<line id="XMLID_847_" class="st15" x1="468.1" y1="40" x2="466.5" y2="49.3"/>
			<line id="XMLID_846_" class="st15" x1="466.5" y1="38.6" x2="461.2" y2="44"/>
			<line id="XMLID_845_" class="st15" x1="466.1" y1="37" x2="460.5" y2="38.4"/>
			<line id="XMLID_844_" class="st15" x1="468.1" y1="33.3" x2="467.4" y2="30.1"/>
			<line id="XMLID_843_" class="st15" x1="470.2" y1="33.6" x2="471.6" y2="31.2"/>
			<line id="XMLID_842_" class="st15" x1="471.5" y1="36" x2="475" y2="35.3"/>
			<line id="XMLID_841_" class="st15" x1="471.3" y1="38.2" x2="475.8" y2="41.3"/>
			<line id="XMLID_840_" class="st15" x1="466.3" y1="35.1" x2="462.5" y2="33.2"/>
		</g>
	</g>
	<ellipse id="yq0" class="st52" cx="195.3" cy="88.4" rx="5.6" ry="7.2"/>
	<path id="yq1" class="st41" d="M266.7,81c2-2.5,5.1-2.5,7.1,0c2,2.5,2,6.5,0,9c-2,2.5-5.1,2.5-7.1,0
		C264.7,87.5,264.7,83.5,266.7,81z"/>
	<g id="yq2">
		<ellipse id="XMLID_857_" class="st11" cx="285.4" cy="85.2" rx="3.9" ry="5"/>
		<ellipse id="XMLID_856_" class="st11" cx="285.4" cy="85.2" rx="4.7" ry="5.9"/>
		<path id="XMLID_855_" class="st39" d="M284.3,83.9c0.6-0.7,1.4-0.7,2,0c0.6,0.7,0.6,1.9,0,2.6c-0.6,0.7-1.4,0.7-2,0
			C283.8,85.8,283.8,84.6,284.3,83.9z"/>
	</g>
	<path id="yq3" class="st11" d="M252.5,83.9c2,2.5,2,6.5,0,9s-5.1,2.5-7.1,0s-2-6.5,0-9C247.4,81.4,250.6,81.4,252.5,83.9z"/>
	<g id="yq4">
		<path id="XMLID_860_" class="st25" d="M235.4,92.9c-1.9,2.5-5.1,2.5-7.1-0.1c-2-2.5-2-6.6,0-9c1.9-2.5,5.1-2.5,7.1,0.1
			C237.4,86.4,237.4,90.4,235.4,92.9z"/>
		<path id="XMLID_859_" class="st26" d="M233.6,90.6c-0.9,1.2-2.4,1.2-3.3,0c-0.9-1.2-0.9-3.1,0-4.3s2.4-1.2,3.3,0
			C234.5,87.6,234.5,89.5,233.6,90.6z"/>
	</g>
	<g id="yq5">
		<ellipse id="XMLID_862_" class="st34" cx="213.6" cy="88.4" rx="5" ry="6.4"/>
		<path id="XMLID_858_" class="st10" d="M209.2,85.2"/>
	</g>
	<path id="dd0" class="st36" d="M208.8,110.5c0.2-1,0.9-1.7,1.8-1.5c0.8,0.2,1.3,1.2,1.2,2.2s-0.9,1.7-1.8,1.5
		C209.1,112.5,208.6,111.5,208.8,110.5z"/>
	<path id="dd1" class="st39" d="M224.6,108c0.4,0.9,0.1,2-0.6,2.5c-0.7,0.5-1.6,0.1-2-0.8s-0.1-2,0.6-2.5S224.2,107.1,224.6,108z"/>
	<path id="dd2" class="st6" d="M194.3,111.2c0.6-0.7,1.5-0.7,2.1,0c0.6,0.8,0.6,2,0,2.7c-0.6,0.7-1.5,0.7-2.1,0
		C193.7,113.1,193.7,111.9,194.3,111.2z"/>
	<path id="dd3" class="st25" d="M236,112.9c-1,1.2-2.6,1.2-3.5,0c-1-1.2-1-3.3,0-4.5c1-1.2,2.6-1.2,3.5,0
		C237,109.6,237,111.6,236,112.9z"/>
	<g id="xq11">
		<path id="XMLID_864_" class="st5" d="M540.2,54.9l-0.5,0.1c-0.7,0.1-1.3-0.5-1.4-1.3l-1.7-15c-0.1-0.9,0.4-1.7,1-1.8l0.5-0.1
			c0.7-0.1,1.3,0.5,1.4,1.3l1.7,15C541.3,53.9,540.9,54.7,540.2,54.9z"/>
		<path id="XMLID_863_" class="st5" d="M536.8,49l-0.3-0.5c-0.4-0.7-0.3-1.7,0.2-2.2l9.2-9.6c0.5-0.5,1.3-0.4,1.7,0.2l0.3,0.5
			c0.4,0.7,0.3,1.7-0.2,2.2l-9.2,9.6C538,49.7,537.2,49.6,536.8,49z"/>
	</g>
	<g id="dd4">
		<path id="XMLID_873_" class="st40" d="M247.7,109.1c0.8-1,2-1,2.8,0c0.8,1,0.8,2.6,0,3.5c-0.8,1-2,1-2.8,0
			C246.9,111.6,246.9,110.1,247.7,109.1z"/>
		<g id="XMLID_868_">
			<path id="XMLID_872_" class="st32" d="M252.8,112.2c0-1.3,0.8-2.4,1.9-2.4s1.9,1.1,1.9,2.4"/>
			<path id="XMLID_871_" class="st32" d="M249,112.2c0-1.3,0.8-2.4,1.9-2.4s1.9,1.1,1.9,2.4"/>
			<path id="XMLID_870_" class="st32" d="M245.2,112.2c0-1.3,0.8-2.4,1.9-2.4s1.9,1.1,1.9,2.4"/>
			<path id="XMLID_869_" class="st32" d="M241.5,112.2c0-1.3,0.8-2.4,1.9-2.4s1.9,1.1,1.9,2.4"/>
		</g>
	</g>
	<g id="xx0">
		<path id="XMLID_928_" class="st7" d="M225.5,142.7c0,0-1-1.3-2.3-1.3c-0.7,0-1.4,0.4-2,1.2l-0.4,0.5l-0.9-1.2l0.2-0.3
			c2.3-2.9,0-5.9-0.1-6.1l-0.2-0.3l1-1.2l0.4,0.5c0.6,0.8,1.3,1.2,2,1.2c1.3,0,2.3-1.1,2.4-1.1l0.4-0.4l0.4,0.7l0.4,0.4l-0.2,0.3
			c-0.1,0.1-2.1,3.3,0,6l0.2,0.3l-0.9,1.2L225.5,142.7z"/>
		<path id="XMLID_925_" class="st8" d="M220.7,134.8c0.8,1,1.7,1.4,2.4,1.4c1.5,0,2.6-1.2,2.7-1.2l0.1,0.2l0.2,0.2
			c-0.1,0.1-2.2,3.6,0,6.6l-0.3,0.4c-0.1-0.1-1.2-1.5-2.7-1.5c-0.8,0-1.6,0.4-2.4,1.4l-0.3-0.4c2.5-3.2,0-6.5-0.1-6.7L220.7,134.8
			 M220.7,133.2l-0.8,1l-0.3,0.4l-0.5,0.6l0.5,0.6c0.1,0.1,2.1,2.9,0.1,5.5l-0.5,0.6l0.5,0.6l0.3,0.4l0.8,1l0.8-1
			c0.5-0.7,1.1-1,1.7-1c0.8,0,1.7,0.8,1.9,1.1l0.8,1l0.8-1l0.3-0.4l0.5-0.6l-0.5-0.6c-1.9-2.4-0.1-5.3,0-5.5l0.4-0.7l-0.5-0.6
			l-0.1-0.1l-0.1-0.1l-0.7-1.1l-0.9,0.9c-0.3,0.3-1.1,1-2,1c-0.6,0-1.1-0.3-1.7-1L220.7,133.2L220.7,133.2z"/>
	</g>
	<path id="xx1" class="st37" d="M201.5,143.4c-3.3-4.2-0.2-9.2-0.1-9.4l-0.3-0.3l-0.2-0.3c-0.2,0.2-4.1,4-7.4-0.2l-0.5,0.6
		c0.2,0.2,3.7,5,0.1,9.5l0.5,0.6c3.6-4.5,7.2-0.1,7.3,0.1L201.5,143.4z"/>
	<g id="xq12">
		<g id="XMLID_908_">
			<path id="XMLID_909_" class="st10" d="M516.6,39.2c1.5,1.1,1.9,3.6,1.1,5.5s-2.8,2.5-4.3,1.3c-1.5-1.1-1.9-3.6-1.1-5.5
				C513.2,38.7,515.1,38.1,516.6,39.2z"/>
		</g>
		<g id="XMLID_905_">
			<path id="XMLID_907_" class="st11" d="M517,38.4c1.8,1.4,2.4,4.5,1.3,6.9c-1.1,2.4-3.5,3.1-5.4,1.7c-1.8-1.4-2.4-4.5-1.3-6.9
				C512.8,37.7,515.2,36.9,517,38.4z"/>
		</g>
		<path id="XMLID_904_" class="st36" d="M515.4,41.7c0.4,0.3,0.5,1,0.3,1.5c-0.2,0.5-0.8,0.7-1.2,0.4c-0.4-0.3-0.5-1-0.3-1.5
			C514.5,41.6,515,41.4,515.4,41.7z"/>
		<g id="XMLID_874_">
			<path id="XMLID_903_" class="st38" d="M509.1,46.8"/>
			<line id="XMLID_902_" class="st38" x1="515.8" y1="45.6" x2="518.7" y2="53.7"/>
			<line id="XMLID_884_" class="st38" x1="514" y1="45.9" x2="512.3" y2="55.5"/>
			<line id="XMLID_883_" class="st38" x1="512.3" y1="44.4" x2="506.9" y2="50.1"/>
			<line id="XMLID_882_" class="st38" x1="511.9" y1="42.8" x2="506.2" y2="44.3"/>
			<line id="XMLID_881_" class="st38" x1="513.9" y1="39" x2="513.2" y2="35.7"/>
			<line id="XMLID_880_" class="st38" x1="516.1" y1="39.3" x2="517.5" y2="36.8"/>
			<line id="XMLID_879_" class="st38" x1="517.4" y1="41.7" x2="521" y2="41.1"/>
			<line id="XMLID_878_" class="st38" x1="517.2" y1="44" x2="521.9" y2="47.3"/>
			<line id="XMLID_877_" class="st38" x1="512" y1="40.8" x2="508.2" y2="38.9"/>
		</g>
	</g>
	<path id="dd5" class="st5" d="M498.6,36.4l0.3,0.4c0.4,0.6,0.3,1.4-0.1,1.8l-7.7,8c-0.4,0.5-1.1,0.4-1.4-0.2l-0.3-0.4
		c-0.4-0.6-0.3-1.4,0.1-1.8l7.7-8C497.6,35.8,498.2,35.9,498.6,36.4z"/>
	</defs>
</g>
<g id="xq"></g>
<g id="yq"></g>
<g id="dd"></g>
<g id="xx"></g>

</svg>
